<svg width="22" height="16" viewBox="0 0 22 16" fill="none" xmlns="http://www.w3.org/2000/svg">
<path fill-rule="evenodd" clip-rule="evenodd" d="M10.8034 4.57117C9.8166 4.57117 8.87016 4.93239 8.17235 5.57537C7.47455 6.21835 7.08252 7.09042 7.08252 7.99974C7.08252 8.90905 7.47455 9.78112 8.17235 10.4241C8.87016 11.0671 9.8166 11.4283 10.8034 11.4283C11.7903 11.4283 12.7367 11.0671 13.4345 10.4241C14.1324 9.78112 14.5244 8.90905 14.5244 7.99974C14.5244 7.09042 14.1324 6.21835 13.4345 5.57537C12.7367 4.93239 11.7903 4.57117 10.8034 4.57117ZM8.57089 7.99974C8.57089 7.45415 8.80611 6.93091 9.22479 6.54512C9.64348 6.15933 10.2113 5.9426 10.8034 5.9426C11.3956 5.9426 11.9634 6.15933 12.3821 6.54512C12.8008 6.93091 13.036 7.45415 13.036 7.99974C13.036 8.54533 12.8008 9.06857 12.3821 9.45436C11.9634 9.84015 11.3956 10.0569 10.8034 10.0569C10.2113 10.0569 9.64348 9.84015 9.22479 9.45436C8.80611 9.06857 8.57089 8.54533 8.57089 7.99974Z" fill="#C5B2FF" fill-opacity="0.8"/>
<path fill-rule="evenodd" clip-rule="evenodd" d="M10.8034 0C6.32438 0 3.30695 2.47223 1.55563 4.56869L1.52487 4.60617C1.12797 5.08069 0.76382 5.5168 0.51675 6.03246C0.25182 6.5856 0.136719 7.18811 0.136719 8C0.136719 8.81189 0.25182 9.4144 0.51675 9.96754C0.764812 10.4832 1.12897 10.9202 1.52487 11.3938L1.55663 11.4313C3.30695 13.5278 6.32438 16 10.8034 16C15.2824 16 18.2998 13.5278 20.0511 11.4313L20.0819 11.3938C20.4788 10.9202 20.843 10.4832 21.09 9.96754C21.355 9.4144 21.4701 8.81189 21.4701 8C21.4701 7.18811 21.355 6.5856 21.09 6.03246C20.842 5.5168 20.4778 5.08069 20.0819 4.60617L20.0501 4.56869C18.2998 2.47223 15.2824 0 10.8034 0ZM2.73641 5.40526C4.35179 3.46971 6.98323 1.37143 10.8034 1.37143C14.6235 1.37143 17.254 3.46971 18.8704 5.40526C19.307 5.9264 19.561 6.23726 19.7287 6.58651C19.8854 6.91383 19.9817 7.31337 19.9817 8C19.9817 8.68663 19.8854 9.08617 19.7287 9.41349C19.561 9.76274 19.306 10.0736 18.8714 10.5947C17.253 12.5303 14.6235 14.6286 10.8034 14.6286C6.98323 14.6286 4.35278 12.5303 2.73641 10.5947C2.29982 10.0736 2.0458 9.76274 1.87811 9.41349C1.72134 9.08617 1.62509 8.68663 1.62509 8C1.62509 7.31337 1.72134 6.91383 1.87811 6.58651C2.0458 6.23726 2.3018 5.9264 2.73641 5.40526Z" fill="#C5B2FF" fill-opacity="0.8"/>
</svg>
