<svg width="17" height="16" viewBox="0 0 17 16" fill="none" xmlns="http://www.w3.org/2000/svg">
<path d="M16.1367 3.87041V12.3889C16.1368 13.0776 15.9029 13.7403 15.4829 14.2413C15.0629 14.7424 14.4886 15.044 13.8775 15.0844L13.7367 15.0889H2.53672C1.92455 15.0889 1.33551 14.8258 0.89011 14.3533C0.444713 13.8809 0.176633 13.2348 0.140719 12.5473L0.136719 12.3889V3.87041L7.69272 9.5377L7.78552 9.5971C7.89488 9.65722 8.015 9.68847 8.13672 9.68847C8.25844 9.68847 8.37855 9.65722 8.48792 9.5971L8.58072 9.5377L16.1367 3.87041Z" fill="#C5B2FF"/>
<path d="M13.7367 0.688904C14.6007 0.688904 15.3583 1.2019 15.7807 1.9732L8.13673 7.7062L0.492725 1.9732C0.693358 1.60674 0.968957 1.29955 1.29654 1.07724C1.62413 0.854934 1.99421 0.723947 2.37592 0.695204L2.53672 0.688904H13.7367Z" fill="#C5B2FF"/>
</svg>
