<svg width="17" height="18" viewBox="0 0 17 18" fill="none" xmlns="http://www.w3.org/2000/svg">
<path fill-rule="evenodd" clip-rule="evenodd" d="M12.2031 0.458033C9.52494 -0.152678 6.74765 -0.152678 4.06951 0.458033L3.78094 0.523162C3.0274 0.69452 2.33527 1.07586 1.7816 1.62473C1.22794 2.1736 0.834458 2.86846 0.644978 3.63195C-0.0327011 6.361 -0.0327011 9.21935 0.644978 11.9484C0.8257 12.6765 1.19213 13.3429 1.70704 13.8797C2.22196 14.4166 2.867 14.8049 3.57664 15.0051L3.97247 17.4157C3.9851 17.4922 4.01762 17.5639 4.06664 17.6233C4.11566 17.6827 4.17939 17.7276 4.25118 17.7533C4.32298 17.779 4.40022 17.7846 4.47486 17.7695C4.5495 17.7544 4.61882 17.7192 4.67559 17.6675L7.00032 15.5461C8.74542 15.6535 10.4967 15.5112 12.2031 15.1232L12.4925 15.058C13.246 14.8867 13.9382 14.5053 14.4918 13.9565C15.0455 13.4076 15.439 12.7127 15.6285 11.9493C16.3061 9.22021 16.3061 6.36186 15.6285 3.63282C15.4389 2.86922 15.0453 2.17428 14.4915 1.6254C13.9376 1.07652 13.2453 0.695245 12.4916 0.52403L12.2031 0.458033ZM4.78795 3.56161C4.62974 3.53798 4.46838 3.57047 4.33084 3.65366H4.31892C3.9997 3.8447 3.71199 4.08524 3.46683 4.36833C3.26253 4.60887 3.15187 4.85202 3.12293 5.08648C3.10591 5.22542 3.11782 5.3661 3.15783 5.49896L3.17315 5.50764C3.40299 6.19627 3.70262 6.85884 4.06865 7.48233C4.54083 8.35794 5.12162 9.16786 5.79667 9.89208L5.8171 9.9216L5.84944 9.94592L5.86902 9.96936L5.89286 9.9902C6.60532 10.6809 7.40111 11.2761 8.261 11.7617C9.24418 12.3079 9.8409 12.5658 10.1993 12.6735V12.6787C10.304 12.7117 10.3993 12.7265 10.4955 12.7265C10.8009 12.7041 11.0899 12.5775 11.3161 12.3669C11.5927 12.1169 11.8268 11.8225 12.009 11.4951V11.489C12.1801 11.159 12.1222 10.8482 11.8754 10.6371C11.3799 10.1946 10.8437 9.80204 10.2742 9.46483C9.89282 9.25382 9.50551 9.38147 9.34888 9.59509L9.01434 10.0258C8.84239 10.2394 8.53084 10.2099 8.53084 10.2099L8.52233 10.2151C6.1976 9.60985 5.57705 7.20879 5.57705 7.20879C5.57705 7.20879 5.54811 6.88228 5.76347 6.71555L6.18228 6.37168C6.38317 6.20495 6.52277 5.81071 6.30741 5.42167C5.97762 4.8411 5.59363 4.29438 5.16079 3.78913C5.06611 3.67049 4.93352 3.58963 4.78625 3.56074M8.71556 2.51782C8.60268 2.51782 8.49442 2.56357 8.4146 2.64499C8.33478 2.72642 8.28994 2.83686 8.28994 2.95201C8.28994 3.06716 8.33478 3.1776 8.4146 3.25903C8.49442 3.34045 8.60268 3.3862 8.71556 3.3862C9.79238 3.3862 10.6862 3.74484 11.3936 4.43259C11.757 4.8086 12.0405 5.25408 12.2261 5.74211C12.4125 6.231 12.4976 6.75289 12.4755 7.27566C12.4731 7.33268 12.4818 7.38961 12.501 7.4432C12.5203 7.4968 12.5496 7.546 12.5875 7.58802C12.664 7.67286 12.7703 7.72325 12.8832 7.72808C12.9961 7.73292 13.1062 7.69181 13.1894 7.61381C13.2726 7.5358 13.322 7.42728 13.3267 7.31213C13.3521 6.66915 13.2475 6.02771 13.0194 5.42775C12.7903 4.82474 12.4413 4.2766 11.9945 3.81778L11.986 3.8091C11.1084 2.95375 9.99752 2.51782 8.71556 2.51782ZM8.68662 3.94543C8.57374 3.94543 8.46548 3.99118 8.38566 4.0726C8.30584 4.15403 8.261 4.26447 8.261 4.37962C8.261 4.49478 8.30584 4.60521 8.38566 4.68664C8.46548 4.76807 8.57374 4.81381 8.68662 4.81381H8.70109C9.47742 4.87025 10.0426 5.13424 10.4385 5.56756C10.8445 6.01391 11.0548 6.5688 11.0386 7.25482C11.036 7.36997 11.0783 7.48146 11.1563 7.56476C11.2343 7.64806 11.3415 7.69634 11.4544 7.69899C11.5673 7.70164 11.6766 7.65843 11.7582 7.57888C11.8399 7.49933 11.8872 7.38994 11.8898 7.27479C11.9103 6.37428 11.6259 5.59709 11.0624 4.97706V4.97533C10.4861 4.34489 9.69533 4.01143 8.74365 3.9463L8.72918 3.94457L8.68662 3.94543ZM8.67044 5.39996C8.61348 5.39484 8.5561 5.40147 8.50171 5.41947C8.44731 5.43747 8.39704 5.46646 8.35387 5.50472C8.31071 5.54298 8.27555 5.58972 8.25048 5.64215C8.22542 5.69458 8.21097 5.75163 8.20799 5.80988C8.20502 5.86813 8.21358 5.9264 8.23317 5.9812C8.25275 6.03601 8.28296 6.08622 8.322 6.12885C8.36103 6.17148 8.40808 6.20565 8.46034 6.22931C8.5126 6.25298 8.56901 6.26567 8.62618 6.2666C8.982 6.28571 9.20928 6.39512 9.35229 6.54188C9.49614 6.6895 9.6034 6.92657 9.62298 7.29737C9.62404 7.35563 9.63659 7.41309 9.65988 7.4663C9.68317 7.51952 9.71672 7.5674 9.75854 7.60711C9.80035 7.64682 9.84958 7.67753 9.90328 7.69742C9.95697 7.7173 10.014 7.72596 10.0711 7.72287C10.1281 7.71978 10.184 7.705 10.2353 7.67943C10.2867 7.65385 10.3324 7.61799 10.3699 7.57399C10.4073 7.52999 10.4357 7.47875 10.4534 7.42332C10.471 7.36788 10.4775 7.3094 10.4725 7.25134C10.4453 6.73032 10.2852 6.27008 9.95752 5.93141C9.62809 5.59274 9.17948 5.42775 8.67044 5.39996Z" fill="#C5B2FF"/>
</svg>
