<svg width="17" height="17" viewBox="0 0 17 17" fill="none" xmlns="http://www.w3.org/2000/svg">
<path fill-rule="evenodd" clip-rule="evenodd" d="M8.13672 0.888916C3.71832 0.888916 0.136719 4.47052 0.136719 8.88891C0.136719 10.4009 0.556719 11.8169 1.28712 13.0233L0.573519 15.4489C0.532546 15.5882 0.52985 15.7359 0.565714 15.8766C0.601578 16.0172 0.674677 16.1457 0.777326 16.2483C0.879976 16.351 1.00838 16.4241 1.14905 16.4599C1.28972 16.4958 1.43745 16.4931 1.57672 16.4521L4.00232 15.7385C5.24931 16.4929 6.67931 16.8908 8.13672 16.8889C12.5551 16.8889 16.1367 13.3073 16.1367 8.88891C16.1367 4.47052 12.5551 0.888916 8.13672 0.888916ZM6.32712 10.6993C7.94552 12.3169 9.49032 12.5305 10.0359 12.5505C10.8655 12.5809 11.6735 11.9473 11.9879 11.2121C12.0273 11.1206 12.0415 11.0202 12.0291 10.9213C12.0167 10.8225 11.9782 10.7287 11.9175 10.6497C11.4791 10.0897 10.8863 9.68731 10.3071 9.28731C10.1863 9.2035 10.0376 9.16984 9.89241 9.19341C9.74723 9.21699 9.61685 9.29596 9.52872 9.41371L9.04872 10.1457C9.02335 10.1849 8.98403 10.213 8.93873 10.2243C8.89342 10.2356 8.84551 10.2292 8.80472 10.2065C8.47912 10.0201 8.00472 9.70331 7.66392 9.36251C7.32312 9.02171 7.02552 8.56891 6.85832 8.26411C6.83809 8.22528 6.83238 8.1805 6.8422 8.13783C6.85203 8.09516 6.87675 8.05739 6.91192 8.03131L7.65112 7.48251C7.75692 7.39099 7.82522 7.26364 7.84293 7.12487C7.86065 6.98611 7.82653 6.84568 7.74712 6.73051C7.38872 6.20571 6.97112 5.53851 6.36552 5.09611C6.2872 5.03984 6.19567 5.00475 6.0998 4.99424C6.00393 4.98373 5.90697 4.99815 5.81832 5.03611C5.08232 5.35131 4.44552 6.15931 4.47592 6.99051C4.49592 7.53611 4.70952 9.08091 6.32712 10.6993Z" fill="#C5B2FF"/>
</svg>
