<svg width="17" height="16" viewBox="0 0 17 16" fill="none" xmlns="http://www.w3.org/2000/svg">
<path fill-rule="evenodd" clip-rule="evenodd" d="M14.4794 0.787419C14.6761 0.700189 14.8914 0.670104 15.1029 0.700295C15.3144 0.730486 15.5144 0.819849 15.682 0.959083C15.8496 1.09832 15.9787 1.28233 16.0559 1.49197C16.1331 1.70162 16.1555 1.92922 16.1209 2.1511L14.3154 13.6887C14.1403 14.8017 12.9812 15.4399 12.0124 14.8855C11.202 14.4217 9.99832 13.7072 8.91567 12.9616C8.37434 12.5884 6.71613 11.3933 6.91993 10.5429C7.09506 9.81574 9.8813 7.08334 11.4734 5.45883C12.0984 4.8206 11.8134 4.45242 11.0754 5.03949C9.24286 6.49711 6.30059 8.71372 5.32779 9.33769C4.46963 9.88786 4.02224 9.9818 3.48728 9.88786C2.5113 9.71677 1.60617 9.45175 0.86742 9.12886C-0.130849 8.69275 -0.0822892 7.24688 0.866624 6.82587L14.4794 0.787419Z" fill="#C5B2FF"/>
</svg>
