<svg width="22" height="15" viewBox="0 0 22 15" fill="none" xmlns="http://www.w3.org/2000/svg">
<path fill-rule="evenodd" clip-rule="evenodd" d="M20.655 1.83692C20.8003 1.29092 20.655 0.888916 19.9594 0.888916H17.6626C17.0781 0.888916 16.8086 1.23592 16.6625 1.61892C16.6625 1.61892 15.4944 4.81492 13.8398 6.89092C13.3043 7.49292 13.0611 7.68392 12.7688 7.68392C12.6227 7.68392 12.4031 7.49292 12.4031 6.94592V1.83692C12.4031 1.18092 12.2421 0.888916 11.7556 0.888916H8.14368C7.77881 0.888916 7.55919 1.19292 7.55919 1.48192C7.55919 2.10292 8.38692 2.24692 8.47179 3.99492V7.79292C8.47179 8.62592 8.33792 8.77692 8.04568 8.77692C7.26694 8.77692 5.37261 5.56592 4.24826 1.89192C4.03039 1.17692 3.80989 0.888916 3.22278 0.888916H0.924202C0.267966 0.888916 0.136719 1.23592 0.136719 1.61892C0.136719 2.30092 0.915452 5.68892 3.76352 10.1699C5.66223 13.2299 8.3353 14.8889 10.7704 14.8889C12.2307 14.8889 12.411 14.5209 12.411 13.8859V11.5729C12.411 10.8359 12.5492 10.6889 13.0121 10.6889C13.3533 10.6889 13.9369 10.8809 15.3002 12.3559C16.8576 14.1049 17.114 14.8889 17.9907 14.8889H20.2875C20.9438 14.8889 21.2728 14.5209 21.0838 13.7929C20.8755 13.0689 20.1318 12.0179 19.1457 10.7709C18.6102 10.0609 17.807 9.29592 17.5629 8.91292C17.2225 8.42192 17.3196 8.20292 17.5629 7.76592C17.5629 7.76592 20.3628 3.33992 20.6542 1.83692" fill="#C5B2FF"/>
</svg>
