<svg width="42" height="8" viewBox="0 0 42 8" fill="none" xmlns="http://www.w3.org/2000/svg">
<path d="M1 3.50006C0.723858 3.50006 0.5 3.72392 0.5 4.00006C0.5 4.2762 0.723858 4.50006 1 4.50006V3.50006ZM41.3536 4.35361C41.5488 4.15835 41.5488 3.84177 41.3536 3.64651L38.1716 0.464527C37.9763 0.269265 37.6597 0.269265 37.4645 0.464527C37.2692 0.659789 37.2692 0.976372 37.4645 1.17163L40.2929 4.00006L37.4645 6.82849C37.2692 7.02375 37.2692 7.34033 37.4645 7.53559C37.6597 7.73086 37.9763 7.73086 38.1716 7.53559L41.3536 4.35361ZM1 4.50006H41V3.50006H1V4.50006Z" fill="#252424"/>
</svg>
