<svg width="11" height="12" viewBox="0 0 11 12" fill="none" xmlns="http://www.w3.org/2000/svg">
<path d="M6.28353 11.6026C8.12235 11.2343 10.5 9.91138 10.5 6.49079C10.5 3.37844 8.22177 1.3055 6.58353 0.353143C6.21941 0.141379 5.79412 0.419614 5.79412 0.840202V1.9155C5.79412 2.76373 5.43765 4.31197 4.44706 4.95608C3.94118 5.28491 3.39412 4.79256 3.33294 4.19256L3.28235 3.69961C3.22353 3.12667 2.64 2.77903 2.18235 3.12844C1.35941 3.75491 0.5 4.85491 0.5 6.4902C0.5 10.6731 3.61118 11.7196 5.16647 11.7196C5.25745 11.7196 5.35235 11.7167 5.45118 11.7108C4.68294 11.6455 3.44118 11.169 3.44118 9.62785C3.44118 8.42197 4.32059 7.60726 4.98882 7.2102C5.16882 7.10432 5.37882 7.24256 5.37882 7.45138V7.79844C5.37882 8.06314 5.48176 8.47785 5.72588 8.76138C6.00235 9.08256 6.40765 8.74608 6.44 8.32373C6.45059 8.19079 6.58471 8.10608 6.7 8.17314C7.07706 8.39373 7.55882 8.86432 7.55882 9.62785C7.55882 10.8326 6.89471 11.3867 6.28353 11.6026Z" fill="#B9A7F8"/>
</svg>
